<svg height="50" viewBox="0 0 80 50" width="80" xmlns="http://www.w3.org/2000/svg" xmlns:xlink="http://www.w3.org/1999/xlink"><defs><rect id="a" height="50" rx="4" width="80"/><mask id="b" fill="#fff"><use fill="#fff" fill-rule="evenodd" xlink:href="#a"/></mask></defs><g fill="none" fill-rule="evenodd"><use fill="#007dc3" xlink:href="#a"/><g fill-rule="nonzero"><path d="m79.539947 0h-79.539947v50h79.5211476v-16.4861046c.3371222-.3248671.501624-.7081869.4699832-1.0951483.0505032-.3844447-.1158067-.7678108-.4699832-1.0833726z" fill="#007dc3" mask="url(#b)"/><g fill="#fff" mask="url(#b)"><g transform="translate(0 10)"><path d="m7.2538022 7.98827839-1.53810989-3.75091575-1.53810989 3.75091575zm34.0472967-1.46285714c-.3518951.15340729-.7369279.21786142-1.1203516.18754578h-2.7534066v-2.10051282h2.7913846c.3628741-.02495418.7267007.03279607 1.0633846.16879121.3109857.15665976.4976626.48115503.4747253.82520147.0204973.36326827-.1615956.70857033-.4747253.90021978zm19.5776703 1.46285714-1.5760879-3.75091575-1.5381099 3.75091575zm-36.4968791 4.01347981h-2.3166593v-7.29553109l-3.2661099 7.29553109h-1.8989011l-3.3040879-7.31428567v7.31428567h-4.67129674l-.8734945-2.0817582h-4.69028571l-.87349451 2.0817582h-2.37362637l4.04465934-9.37728934h3.36105494l3.79780215 8.83340664v-8.7771429h3.6838682l2.9622857 6.33904762 2.7154286-6.33904762h3.7978022zm9.2286594 0h-7.5956044v-9.37728934h7.5956044v1.87545788h-5.2789451v1.68791209h5.146022v1.87545787h-5.146022v1.87545788h5.2789451zm10.6528351-6.80791205c.0435696 1.09233218-.597891 2.09854485-1.6140659 2.53186814.4391193.15688251.8265105.42924796 1.1203516.7876923.3145882.51160311.4481774 1.11193013.3797802 1.70666671v1.8754578h-2.2596923v-1.1815384c.111422-.6476574-.0166296-1.31329274-.3607912-1.8754579-.3228132-.33758242-.8355165-.39384616-1.6520439-.39384616h-2.4495824v3.39457876h-2.2596923v-9.37728938h5.184c.9357052-.0905102 1.8790126.06476674 2.7344175.45010989.766407.39971106 1.2209395 1.2092408 1.1583297 2.06300367zm3.5889231 6.78915755h-2.3166593v-9.37728941h2.3166593zm26.7175385 0h-3.1901539l-4.2915165-6.99545791v6.99545791h-4.5953406l-.8734945-2.08175828h-4.6902858l-.8355164 2.08175828h-2.6584616c-1.2662052.1761762-2.5411505-.2580555-3.4282602-1.1676261-.8871098-.90957061-1.2787673-2.18413856-1.0531464-3.42724573-.1056626-1.32472743.3322633-2.63580184 1.2152967-3.63838828.9475268-.81035789 2.1890831-1.20329295 3.437011-1.08776557h2.1837363v1.98798535h-2.1267692c-.6375111-.07275517-1.2754486.13269976-1.7469891.56263736-.4691612.60528595-.6987118 1.35878522-.6456263 2.1192674-.0935667.80781747.1307768 1.62025485.6266373 2.26930403.4336428.35893646.9932735.53418964 1.5570989.48761904h1.0064176l3.1901539-7.33304028h3.3800439l3.7978022 8.81465198v-8.81465198h3.437011l4.0066813 6.41406593v-6.48908425h2.3166594zm-74.5698462 1.8754578h3.7978022l.8734945-2.0817582h1.8989011l.87349451 2.0817582h7.59560439v-1.5941392l.6836044 1.5941392h3.9307253l.6646154-1.6128937v1.6128937h18.8750769v-3.4320879h.3607912c.2468571 0 .3228132 0 .3228132.4501099v2.9444689h9.7603516v-.7876923c1.1186547.551876 2.3579605.8224457 3.6079121.7876923h4.2155605l.8734945-2.0817583h1.8989011l.8545055 2.0817583h7.8994285v-1.9504762l1.1963077 1.9692308h6.3233407v-13.0156777h-6.1334506v1.53787546l-.8734945-1.53787546h-6.4942417v1.53787546l-.7975385-1.53787546h-8.696967c-1.3096457-.06907415-2.6157976.18893118-3.7978022.75018315v-.75018315h-5.9245715v.75018315c-.7291428-.54432296-1.6325852-.81067784-2.5445274-.75018315h-21.9702857l-1.4811429 3.3570696-1.5001319-3.3570696h-6.89301096v1.53787546l-.77854945-1.53787546h-5.88659341l-2.73441758 6.17025641z"/><path d="m80.3442858 20.7226374h-4.1396044c-.31413-.0364729-.6320575.0224025-.9114725.1687912-.2286297.1479252-.3591606.405764-.3418022.6751648-.001862.3115518.1963016.5900724.4937143.6939194.2841381.0789592.5783563.1168617.8734945.1125275h1.2342857c.9202469-.0834177 1.8378201.1850994 2.5635165.7501831.077906.0739817.1479007.1556815.2088791.2438096zm0 6.1515018c-.7606387.8788819-1.9127745 1.3284273-3.0762197 1.200293h-4.3674726v-2.0254945h4.3484835c.3216587.0406839.6470408-.0396574.9114726-.2250549.1805734-.1562958.2843393-.3817625.2848351-.6189011.007563-.2388019-.097694-.4675085-.2848351-.6189011-.2300167-.1502929-.5032528-.2226951-.7785495-.2063004-2.1267692 0-4.7662417 0-4.7662417-2.8882051-.0091598-.8135556.343547-1.590116.964858-2.1243443.6213111-.5342282 1.4486576-.7723251 2.2632738-.6513334h4.5003956v-1.8754578h-4.2725274c-1.0022662-.0505166-1.9943583.219105-2.8293627.7689377v-.7689377h-6.0954725c-.960839-.0508851-1.9109383.2200526-2.6964396.7689377v-.7689377h-11.0326153v.7689377c-.9237031-.5229671-1.9737226-.7887128-3.0382418-.7689377h-7.2917802v.7689377c-.9285653-.5583088-2.0113437-.8141801-3.0952088-.7314286h-8.2412308l-1.8989011 1.9879854-1.746989-1.9879854h-12.133978v13.0156777h11.9440879l1.8989011-2.0254945 1.8989011 2.0254945h7.3677363v-3.0569964h.7215824c1.039159.0823793 2.0845608-.0387158 3.0762198-.356337v3.5071063h6.0764835v-3.5071063h.3038241c.3797803 0 .4177583 0 .4177583.3750916v3.0194872h18.4193406c1.088732.0365701 2.1625638-.2580339 3.0762198-.843956v.843956h5.8486154c1.1385499.0389556 2.2721604-.1657741 3.3230769-.6001465zm-9.0197802-3.7509158c.4741109.5088283.7205469 1.1849218.6836044 1.8754579 0 2.0067399-1.2722637 2.9444689-3.531956 2.9444689h-4.4244396v-1.8942125h4.4244396c.3274849.0382643.657938-.0416639.9304615-.2250549.1697057-.1623079.2656128-.3855835.2658462-.6189011.002039-.2376768-.1021845-.4641378-.2848352-.6189011-.236989-.1505127-.5162732-.2227556-.7975385-.2063004-2.1077802 0-4.7472527 0-4.7472527-2.8882051 0-1.3503297.8545055-2.7756777 3.2281319-2.7756777h4.5193846v1.9879854h-4.1775825c-.2872011-.027411-.5764654.0245332-.8355164.1500366-.2351656.1420901-.3678087.404101-.3418022.6751648-.0078564.3133741.1925344.5950249.4937143.6939195.2838592.0802958.5782786.1182242.8734945.1125274h1.2342857c.9198597-.0795801 1.836028.1885258 2.5635165.7501832zm-20.2992527-.6189011c-.3496002.1608174-.7366224.2256045-1.1203517.1875458h-2.8103736v-2.0254945h2.7723956c.369375-.0330768.7412869.0249211 1.0823736.1687912.3140284.1631105.5004059.4944483.4747253.8439561.0204973.3632683-.1615956.7085703-.4747253.9002198zm1.2912527 1.2378022c.4331312.1581778.8140606.4306177 1.1013627.7876923.3173369.5105117.4511363 1.1117827.3797802 1.7066667v1.8754579h-2.2596923v-1.1627839c.1097134-.6476399-.0182256-1.3126901-.3607912-1.8754579-.3228132-.3375824-.8165275-.4126007-1.652044-.4126007h-2.4305934v3.4133333h-2.2596923v-9.3772893h5.202989c.9291973-.0811459 1.8639665.0738016 2.7154286.4501098.7628492.4032876 1.2159836 1.2103273 1.1583296 2.0630037.0336651 1.0704638-.5989831 2.0523516-1.5950769 2.4756044zm2.8673407-5.0074725h7.5956044v1.8754579h-5.3738901v1.6879121h5.1650109v1.8754579h-5.1650109v1.8754578h5.3738901v1.8754579h-7.5956044zm-15.1912088 4.3135531h-2.9812747v-2.3818315h2.9812747c.8165275 0 1.3861978.3188279 1.3861978 1.1440293 0 .8252015-.5506813 1.2378022-1.4051868 1.2378022zm-5.202989 4.1822711-3.456-3.7509158 3.456-3.7509157zm-8.9438242-1.1065202h-5.5827692v-1.8754578h4.9561318v-1.8754579h-4.9561318v-1.6879121h5.6967033l2.4495824 2.7194139zm17.9446154-4.3323076c0 2.5881318-1.8989011 3.1320146-3.9307253 3.1320146h-2.8483516v3.1320147h-4.3864616l-2.7723956-3.075751-2.8863297 3.0945055h-8.9438241v-9.3772893h9.0767472l2.7913846 3.0569963 2.8673407-3.0569963h7.2348132c1.803956 0 3.7978022.487619 3.7978022 3.0757509z"/></g></g></g></g></svg>