<svg height="50" viewBox="0 0 80 50" width="80" xmlns="http://www.w3.org/2000/svg"><g fill="none" fill-rule="evenodd"><rect fill="#fff" fill-rule="evenodd" height="50" rx="4" width="80"/><rect height="49" rx="4" stroke="#e6e6e6" width="79" x=".5" y=".5"/><g fill-rule="nonzero" transform="translate(13 4)"><path d="m49.7591779 1.03664954v-.1067749h.0984817c.0217697 0 .0404294.00518325.0539058.01347644.0124398.0082932.0196963.02280629.0196963.04042933 0 .01762305-.0072565.03109949-.0196963.03939269-.0134764.00932984-.0321361.01347644-.0539058.01347644zm.0995184.07463877c.0507958 0 .0901885-.01140315.118178-.03420944.0279896-.02280629.041466-.05390577.041466-.09329846 0-.03317278-.0103665-.06012567-.0331728-.08189531-.0217696-.02073299-.0528691-.03420943-.0943351-.03939268l.1306178-.15031419h-.1015916l-.121288.14927754h-.0393927v-.14927754h-.0850052v.39911008zm-.0259163-.53698446c.0466493 0 .0901885.00932984.1295812.02695288.0404294.01762305.0756754.04146599.1057383.07152882.0300628.03006284.0539058.06530892.0715288.1067749.0165864.04042934.0259162.08396862.0259162.13061785s-.0093298.09018851-.0259162.13061784c-.017623.04042933-.041466.07671206-.0715288.1067749-.0300629.03006284-.0653089.05390578-.1057383.07152882-.0393927.01658639-.0829319.02487959-.1295812.02487959-.0466492 0-.0912251-.0082932-.1316545-.02487959-.0414659-.01762304-.0777487-.04146598-.1078115-.07152882s-.0539058-.06634557-.0704922-.1067749c-.017623-.04042933-.0259162-.08396861-.0259162-.13061784s.0082932-.09018851.0259162-.13061785c.0165864-.04146598.0404294-.07671206.0704922-.1067749.0300628-.03006283.0663456-.05390577.1078115-.07152882.0404294-.01762304.0850053-.02695288.1316545-.02695288zm0 .76608401c.0611624 0 .1171414-.01140315.1710472-.03420944.0528691-.02176964.0984817-.05286913.138911-.09226181.0393927-.03835603.0704922-.08396861.0932985-.13683774.0228063-.05183248.0342094-.10781155.0342094-.16690057 0-.05908903-.0114031-.1150681-.0342094-.16690058s-.0539058-.09744506-.0932985-.13683774c-.0404293-.03835603-.0860419-.06945552-.138911-.09226181-.0539058-.02280629-.1098848-.03420943-.1710472-.03420943-.0621989 0-.1192147.01140314-.1731204.03420943-.0539058.02280629-.100555.05390578-.1399477.09226181-.0393927.03939268-.0704922.08500526-.0932985.13683774s-.0342094.10781155-.0342094.16690058c0 .05908902.0114031.11506809.0342094.16690057.0228063.05286913.0539058.09848171.0932985.13683774.0393927.03939268.0860419.07049217.1399477.09226181.0539057.02280629.1109215.03420944.1731204.03420944zm-40.38890269 1.53735126c0 .76090076.49862843 1.38600044 1.31343499 1.38600044.7785238 0 1.3041051-.59814679 1.3041051-1.38600044s-.5255813-1.38600043-1.3041051-1.38600043c-.81480656 0-1.31343499.62509967-1.31343499 1.38600043zm3.50491209 0v2.16452424h-.9412778v-.52558131c-.298555.38978022-.7515709.63442951-1.3673407.63442951-1.21391663 0-2.16556091-.95164427-2.16556091-2.27337244 0-1.32276481.95164428-2.27337244 2.16556091-2.27337244.6157698 0 1.0687857.24464929 1.3673407.63442952v-.52558132h.9412778zm31.8085545 0c0 .76090076.4986284 1.38600044 1.313435 1.38600044.7795604 0 1.3041051-.59814679 1.3041051-1.38600044s-.5245447-1.38600043-1.3041051-1.38600043c-.8148066 0-1.313435.62509967-1.313435 1.38600043zm3.5059487 0v3.90298552h-.9423144v-2.26404259c-.2985551.38978022-.7515709.63442951-1.3673407.63442951-1.2139167 0-2.1655609-.95164427-2.1655609-2.27337244 0-1.32276481.9516442-2.27337244 2.1655609-2.27337244.6157698 0 1.0687856.24464929 1.3673407.63442952v-.52558132h.9423144zm-23.6304262 1.43057637c.6064399 0 .9962202-.38045038 1.0957385-1.05012599h-2.2464195c.100555.62509968.4799687 1.05012599 1.150681 1.05012599zm.0186597.84279607c-1.2688591 0-2.1562311-.92365474-2.1562311-2.27337244 0-1.37667059.9236548-2.27337244 2.2194667-2.27337244.6520525 0 1.2491627.16275398 1.774744.60643998l-.4613091.69766514c-.3628273-.28922522-.825173-.45301585-1.2595291-.45301585-.60644 0-1.1589742.28093203-1.2947753 1.06049248h3.2146502c.0093299.1171414.0186597.23531945.0186597.36179069-.0093298 1.3497177-.8427961 2.27337244-2.055676 2.27337244zm11.3658255-2.27337244c0 .76090076.4986284 1.38600044 1.313435 1.38600044.7785238 0 1.3041051-.59814679 1.3041051-1.38600044s-.5255813-1.38600043-1.3041051-1.38600043c-.8148066 0-1.313435.62509967-1.313435 1.38600043zm3.5049121 0v2.16452424h-.9412778v-.52558131c-.2995917.38978022-.7515709.63442951-1.3673407.63442951-1.2139166 0-2.1655609-.95164427-2.1655609-2.27337244 0-1.32276481.9516443-2.27337244 2.1655609-2.27337244.6157698 0 1.067749.24464929 1.3673407.63442952v-.52558132h.9412778zm-8.8208509 0c0-1.31343496.9143249-2.27337244 2.3096551-2.27337244.6520526 0 1.0864088.14513094 1.5570477.51625147l-.4519792.76090076c-.3534975-.25397913-.7246181-.38978022-1.133058-.38978022-.7515709.00932984-1.3041051.5525342-1.3041051 1.38600043s.5525342 1.37667059 1.3041051 1.38600044c.4084399 0 .7795605-.13580109 1.133058-.38978023l.4519792.76090076c-.4706389.37112054-.9049951.51625147-1.5570477.51625147-1.3953302 0-2.3096551-.95993747-2.3096551-2.27337244zm12.1360561 2.27337244c-.5432043 0-.8967018-.25397913-1.1413511-.63442951v.52558131h-.9329846v-4.32904848h.9423144v2.42679658c0 .71632483.307885 1.11439825.9236548 1.11439825.1907435 0 .3897802-.02695289.5888169-.1088482l.2902619.88737201c-.2083666.08189531-.4799687.11817804-.6707123.11817804zm-25.2330864-.45301585c-.4530159.29855507-1.0770789.45301585-1.7654142.45301585-1.0967752 0-1.8027335-.52558131-1.8027335-1.38600043 0-.70595834.5255813-1.14135114 1.493812-1.27715223l.4447226-.06323563c.5162515-.07256546.7598641-.20836655.7598641-.45301585 0-.3348378-.3441676-.52558131-.9868903-.52558131-.6520526 0-1.1226915.20836656-1.4399063.45301585l-.443686-.73291123c.5162515-.38045038 1.1683041-.56186405 1.8742624-.56186405 1.2501994 0 1.9748174.58881694 1.9748174 1.41295332 0 .76090077-.5701573 1.15897419-1.5124717 1.29477528l-.443686.06427227c-.4074033.05390578-.7339479.13476444-.7339479.42502631 0 .31721476.3078849.50692163.8241364.50692163.5525342 0 1.0874454-.20836656 1.3497177-.37112054zm12.145386.45301585c-.5432044 0-.8967019-.25397913-1.1403145-.63442951v.52558131h-.9329846v-4.32904848h.9412778v2.42679658c0 .71632483.3078849 1.11439825.9236547 1.11439825.1907436 0 .3897803-.02695289.588817-.1088482l.2902618.88737201c-.2083665.08189531-.4799687.11817804-.6707122.11817804zm-8.0329973-.1088482h-1.5394246v1.31343497h-.9516442v-1.31343497h-.8780422v-.86041912h.8780422v-1.97481737c0-1.0045134.3897802-1.60266019 1.5031418-1.60266019.4084399 0 .8790788.12647125 1.1776339.3348378l-.2716022.80651335c-.280932-.16275398-.5888169-.2446493-.8334662-.2446493-.4706389 0-.6240631.29026187-.6240631.72461803v1.95615768h1.5394246zm-14.07459079-4.32904848v2.71705845c0 1.02317309-.65205256 1.71150839-1.7032152 1.72083823-.5525342.00932985-1.12269145-.16275397-1.52180152-.7702306-.29855507.47996873-.76919396.7702306-1.43057637.7702306-.46234569 0-.91432489-.13580109-1.26782238-.64272271v.53387451h-.94231443v-4.32904848h.95060762v2.39984369c0 .75157091.41673312 1.15068099 1.06049248 1.15068099.62509968 0 .94127778-.40740327.94127778-1.14135115v-2.40917353h.95164428v2.39984369c0 .75157091.43435616 1.15068099 1.05945583 1.15068099.64272272 0 .95060763-.40740327.95060763-1.14135115v-2.40917353z" fill="#231f20" transform="matrix(1 0 0 -1 3.246698 42.558356)"/><path d="m2.07329908 0v.63235622h-.16482728l-.19074351-.43435616-.18970687.43435616h-.16586392v-.63235622h.11714139v.47685879l.17830372-.41154987h.121288l.17830372.41258652v-.47789544zm-1.04597939 0v.52454467h.21147651v.1067749h-.53905776v-.1067749h.21147651v-.52454467z" fill="#f79410" transform="matrix(1 0 0 -1 51.5131 27.448153)"/><path d="m34.8437758 30.1683212h-14.2659563v-25.63841642h14.2659563z" fill="#ff5f00"/><path d="m20.7329908 16.5863926c0 5.2008708 2.4350898 9.8336576 6.2271538 12.8192082-2.7730375 2.183184-6.2727664 3.4862525-10.0762335 3.4862525-9.00433795 0-16.30338736-7.3000861-16.30338736-16.3054607 0-9.00537451 7.29904941-16.30546058 16.30338736-16.30546058 3.8034671 0 7.303196 1.30306848 10.0762335 3.48625241-3.792064 2.98555067-6.2271538 7.61833747-6.2271538 12.81920817" fill="#eb001b" transform="matrix(1 0 0 -1 .758739 33.933433)"/><path d="m26.952888 16.5863926c0-9.00537451-7.2990494-16.30546058-16.3033873-16.30546058-3.80346714 0-7.30319599 1.30306848-10.07727015 3.48625241 3.79310066 2.98555067 6.22819043 7.61833747 6.22819043 12.81920817 0 5.2008708-2.43508977 9.8336576-6.22819043 12.8192082 2.77407416 2.183184 6.27380301 3.4862525 10.07727015 3.4862525 9.0043379 0 16.3033873-7.3000861 16.3033873-16.3054607" fill="#f79e1b" transform="matrix(1 0 0 -1 27.131103 33.933433)"/></g></g></svg>