<svg height="50" viewBox="0 0 80 50" width="80" xmlns="http://www.w3.org/2000/svg" xmlns:xlink="http://www.w3.org/1999/xlink"><defs><rect id="a" height="50" rx="4" width="80"/><mask id="b" fill="#fff"><use fill="#fff" fill-rule="evenodd" xlink:href="#a"/></mask></defs><g fill="none" fill-rule="evenodd"><use fill="#fff" fill-rule="evenodd" xlink:href="#a"/><rect height="49" rx="4" stroke="#e6e6e6" width="79" x=".5" y=".5"/><g fill-rule="nonzero" mask="url(#b)"><path d="m0 49.8918487h80v-7.1038252h-80z" fill="#f7b600" transform="matrix(1 0 0 -1 0 92.679872)"/><g fill="#1a1f71"><path d="m0 0h80v7.10382524h-80z" transform="matrix(1 0 0 -1 0 7.103826)"/><path d="m38.4798484 34.9524132-4.1765331-19.5260325h-5.0516091l4.1769127 19.5260325zm21.2522772-12.6085309 2.6593808 7.3330299 1.5296751-7.3330299zm5.6386613-6.9175016h4.6709928l-4.0809047 19.5260325h-4.308971c-.9710838 0-1.789238-.5631452-2.1516393-1.4313905l-7.58007-18.094642h5.3051003l1.0534305 2.9159077h6.4799637zm-13.187614 6.3748483c.0223892 5.1529296-7.1231786 5.4386765-7.0757439 7.7409685.0155586.6997572.6826806 1.4450517 2.1417729 1.6355496.7236643.0933515 2.7193383.1684881 4.9821647-.8739375l.8849423 4.1423801c-1.2154675.4394354-2.7792957.8629326-4.7248787.8629326-4.9939284 0-8.5071343-2.6525501-8.5352156-6.4541591-.0318762-2.8111719 2.509487-4.3784154 4.4201579-5.3145872 1.970249-.9570432 2.6305404-1.5710383 2.6210535-2.4260019-.0136612-1.3099575-1.5714178-1.8897997-3.0210231-1.9118094-2.5417426-.0394657-4.0141167.6868549-5.1882211 1.234062l-.9168185-4.2805101c1.1820735-.5411354 3.3602763-1.0120674 5.6158926-1.036354 5.3088951 0 8.7803584 2.6218124 8.795917 6.6814664zm-20.9213725 13.1511842-8.1849577-19.5260325h-5.3392532l-4.0281573 15.5832577c-.2440043.9581815-.4568914 1.310337-1.1995295 1.7152398-1.2147086.659912-3.220249 1.276943-4.98330307 1.6609745l.11915605.5665605h8.59593212c1.0947936 0 2.0799181-.7285975 2.3303734-1.9896024l2.1277323-11.3000912 5.2550092 13.2896936z" transform="matrix(1 0 0 -1 0 50.428884)"/></g></g></g></svg>